<?xml version="1.0" encoding="UTF-8" standalone="no"?>
<!-- Created with Inkscape (http://www.inkscape.org/) -->

<svg
   width="154mm"
   height="154mm"
   viewBox="0 0 154.00001 154"
   version="1.1"
   id="svg5"
   xml:space="preserve"
   inkscape:version="1.2.2 (732a01da63, 2022-12-09)"
   sodipodi:docname="icon.svg"
   xmlns:inkscape="http://www.inkscape.org/namespaces/inkscape"
   xmlns:sodipodi="http://sodipodi.sourceforge.net/DTD/sodipodi-0.dtd"
   xmlns="http://www.w3.org/2000/svg"
   xmlns:svg="http://www.w3.org/2000/svg"><sodipodi:namedview
     id="namedview7"
     pagecolor="#ffffff"
     bordercolor="#000000"
     borderopacity="0.25"
     inkscape:showpageshadow="2"
     inkscape:pageopacity="0.0"
     inkscape:pagecheckerboard="0"
     inkscape:deskcolor="#d1d1d1"
     inkscape:document-units="mm"
     showgrid="false"
     inkscape:zoom="1.0444209"
     inkscape:cx="216.38785"
     inkscape:cy="256.60152"
     inkscape:window-width="1920"
     inkscape:window-height="1009"
     inkscape:window-x="-8"
     inkscape:window-y="-8"
     inkscape:window-maximized="1"
     inkscape:current-layer="layer1" /><defs
     id="defs2" /><g
     inkscape:label="Layer 1"
     inkscape:groupmode="layer"
     id="layer1"
     transform="translate(-27.564509,-147.72464)"><rect
       style="fill:#2a2f34;fill-opacity:1;stroke:#000000;stroke-width:0.0998444"
       id="rect354"
       width="153.90016"
       height="153.90016"
       x="27.614431"
       y="147.77457"
       ry="34.500118" /><path
       style="fill:none;fill-opacity:0.652482;stroke:#6cf6e9;stroke-width:3.3;stroke-linecap:round;stroke-linejoin:round;stroke-dasharray:none;stroke-opacity:1"
       d="m 34.938038,224.24193 h 10.133205 c 1.692805,0.10418 2.467388,2.8912 3.546623,2.91329 2.519211,0.059 5.745988,-14.81212 8.23323,-14.69314 4.502632,-0.13544 4.030544,32.52667 8.866558,32.55292 4.826937,0.1718 2.180009,-18.57973 8.106564,-38.88618 4.102301,-11.90735 14.733752,-17.72954 24.461728,-19.40917 10.274454,-1.57623 18.489864,1.90532 26.287504,7.83787"
       id="path3453"
       sodipodi:nodetypes="cccccccc" /><path
       style="fill:none;fill-opacity:0.652482;stroke:#6cf6e9;stroke-width:3.3;stroke-linecap:round;stroke-linejoin:round;stroke-dasharray:none;stroke-opacity:1"
       d="m 98.480177,220.92875 c 0.911732,-3.01425 2.599123,-5.4052 6.607143,-5.32315 5.03033,0.18731 8.56327,3.7084 8.82115,9.29411 0.10954,4.84835 -3.36941,9.73281 -9.25204,10.8233 -6.81755,0.98296 -15.452109,-2.92859 -17.514598,-13.7119 -1.710174,-14.80596 11.955842,-20.09785 18.376398,-20.042 12.17048,0.0505 23.53117,10.26188 23.26864,23.84318 -0.18698,16.28832 -15.16462,23.78684 -23.20916,23.95198 -11.725849,0.41409 -21.101004,-7.15282 -27.113393,-16.75287"
       id="path4267"
       sodipodi:nodetypes="ccccccccc" /><path
       style="fill:none;fill-opacity:0.652482;stroke:#6cf6e9;stroke-width:3.3;stroke-linecap:round;stroke-linejoin:round;stroke-dasharray:none;stroke-opacity:1"
       d="m 174.01374,224.85436 h -10.1332 c -1.69281,-0.10418 -2.46739,-2.8912 -3.54663,-2.91329 -2.51921,-0.059 -5.74599,14.81212 -8.23323,14.69314 -4.50263,0.13544 -4.03054,-32.52667 -8.86655,-32.55292 -4.82694,-0.1718 -2.18001,18.57973 -8.10657,38.88618 -4.1023,11.90735 -14.73375,17.72954 -24.46172,19.40917 -10.27446,1.57623 -18.489872,-1.90532 -26.287512,-7.83787"
       id="path10945"
       sodipodi:nodetypes="cccccccc" /></g></svg>
